<?xml version="1.0" encoding="UTF-8" standalone="no"?>
<svg width="800px" height="304px" viewBox="0 0 800 304" version="1.1" xmlns="http://www.w3.org/2000/svg" xmlns:xlink="http://www.w3.org/1999/xlink" xmlns:sketch="http://www.bohemiancoding.com/sketch/ns">
    <!-- Generator: Sketch 3.0.1 (7597) - http://www.bohemiancoding.com/sketch -->
    <title>Logo</title>
    <description>Created with Sketch.</description>
    <defs></defs>
    <g id="Page-1" stroke="none" stroke-width="1" fill="none" fill-rule="evenodd" sketch:type="MSPage">
        <g id="Logo" sketch:type="MSArtboardGroup">
            <g id="mannheim-+-node.js" sketch:type="MSLayerGroup" transform="translate(27.000000, 36.000000)">
                <g id="mannheim" transform="translate(0.000000, 120.000000)">
                    <g id="old"></g>
                    <path d="M629.249215,22.863777 L629.249215,99.7803156 L648.031908,111.035409 L648.031908,55.9220077 L667.899762,44.9803966 L687.109848,56.0127834 L706.375386,45.121508 L726.119711,56.1241397 L726.119711,110.847141 L745.128724,99.8997812 L745.128724,44.6683064 L706.554818,23.0643987 L687.233827,33.947559 L667.643237,23.1757549 L648.489055,33.8664087 L629.249215,22.863777 Z" id="m" fill="#FFFFFF" sketch:type="MSShapeGroup"></path>
                    <path d="M595,34.2502213 L614,23 L614,113 L595,101.751549 L595,34.2502213 L595,34.2502213 Z" id="i" fill="#FFFFFF" sketch:type="MSShapeGroup"></path>
                    <path d="M581,67.9991147 L581,45.5004426 L542.499125,23 L504,45.5004426 L504,90.4995574 L542.499125,113 L561.750437,101.751549 L523.251312,79.2334009 L523.251312,56.750664 L542.499125,45.5004426 L561.750437,56.750664 L561.750437,79.249336 L581,67.9991147 L581,67.9991147 Z" id="e" fill="#FFFFFF" sketch:type="MSShapeGroup"></path>
                    <path d="M543,53 L530,60.5 L530,75.4965358 L543,83 L556,75.4965358 L556,60.5 L543,53 Z" id="Shape-3" fill="#80BD01" sketch:type="MSShapeGroup"></path>
                    <path d="M410.100656,13.1907496 L410.100656,101.885801 L430.275381,113.051822 L430.275381,57.6356799 L449.171365,46.7839293 L469.25889,58.5387025 L469.25889,113.030131 L489.270115,101.786974 L489.270115,47.3223221 L448.899439,24.4010972 L429.856018,35.4376187 L429.856018,1.95701627 L410.100656,13.1907496 Z" id="h" fill="#FFFFFF" sketch:type="MSShapeGroup"></path>
                    <path d="M318.059208,23.0184199 L318.059208,101.905827 L336.951416,113.394151 L336.951416,56.9813497 L356.463682,45.6658105 L375.980771,57.1848482 L375.980771,113.144982 L394.923891,101.920666 L394.923891,45.6861643 L356.611059,23.1202445 L337.77941,34.2330557 L318.059208,23.0184199 Z" id="n" fill="#FFFFFF" sketch:type="MSShapeGroup"></path>
                    <path d="M225.059208,23.0184199 L225.059208,101.905827 L243.951416,113.394151 L243.951416,56.9813497 L263.463682,45.6658105 L282.980771,57.1848482 L282.980771,113.144982 L301.923891,101.920666 L301.923891,45.6861643 L263.611059,23.1202445 L244.77941,34.2330557 L225.059208,23.0184199 Z" id="n" fill="#FFFFFF" sketch:type="MSShapeGroup"></path>
                    <path d="M151.694355,55.2803133 L151.694355,77.590689 L171.106091,88.771002 L190.550787,77.5004682 L190.439769,55.5066867 L151.965829,33.9483054 L171.776105,23.0112604 L210.073542,44.5895904 L210.073542,88.5036524 L171.175912,111.015442 L132.080963,88.7254671 L132.080963,66.1294416 L151.694355,55.2803133 Z" id="a" fill="#FFFFFF" sketch:type="MSShapeGroup"></path>
                    <path d="M171,52 L158,59.5 L158,74.4965358 L171,82 L184,74.4965358 L184,59.5 L171,52 Z" id="Shape-2" fill="#80BD01" sketch:type="MSShapeGroup"></path>
                    <path d="M0.249214516,22.863777 L0.249214516,99.7803156 L19.0319082,111.035409 L19.0319082,55.9220077 L38.8997621,44.9803966 L58.1098475,56.0127834 L77.3753857,45.121508 L97.1197107,56.1241397 L97.1197107,110.847141 L116.128724,99.8997812 L116.128724,44.6683064 L77.5548181,23.0643987 L58.2338272,33.947559 L38.6432369,23.1757549 L19.4890551,33.8664087 L0.249214516,22.863777 Z" id="m" fill="#FFFFFF" sketch:type="MSShapeGroup"></path>
                </g>
                <g id="node.js" transform="translate(7.000000, 0.000000)">
                    <path d="M552.147208,23.1052083 L513.327945,45.3746599 L513.327945,67.9409084 L532.47374,79.132004 L513.118953,90.3161732 L552.202468,113.03103 L591.09278,90.6232205 L591.09278,68.2234873 L571.541051,57.0869173 L591.214519,45.6621792 L552.147208,23.1052083 Z M552.091948,45.823805 L552.091948,68.1211629 L532.599634,57.1380226 L552.091948,45.823805 Z M552.24194,90.4852778 L552.24194,68.2268999 L571.423052,79.2932143 L552.24194,90.4852778 Z" id="s" fill="#FFFFFF" sketch:type="MSShapeGroup"></path>
                    <path d="M475.846805,-0.182574709 L475.846805,79.085168 L456.314174,90.3962692 L437.127747,79.1055329 L437.127747,101.692056 L456.243433,112.972383 L495.267428,90.1374204 L495.267428,11.3364393 L475.846805,-0.182574709 Z" id="j" fill="#FFFFFF" sketch:type="MSShapeGroup"></path>
                    <path d="M380.257656,77.9827831 L380.257656,99.8379805 L399.693286,110.909631 L419.205552,99.9645626 L419.205552,78.2218029 L399.59682,67.1036324 L380.257656,77.9827831 Z" id="." fill="#80BD01" sketch:type="MSShapeGroup"></path>
                    <path d="M362,67.9991147 L362,45.5004426 L323.499125,23 L285,45.5004426 L285,90.4995574 L323.499125,113 L342.750437,101.751549 L304.251312,79.2334009 L304.251312,56.750664 L323.499125,45.5004426 L342.750437,56.750664 L342.750437,79.249336 L362,67.9991147 L362,67.9991147 Z" id="e" fill="#FFFFFF" sketch:type="MSShapeGroup"></path>
                    <path d="M324,53 L311,60.5 L311,75.4965358 L324,83 L337,75.4965358 L337,60.5 L324,53 Z" id="Shape" fill="#80BD01" sketch:type="MSShapeGroup"></path>
                    <path d="M247.955394,-0.0405562397 L247.955394,34.2185747 L228.367028,22.7338471 L190.323763,45.6352631 L189.912178,90.6856653 L228.768431,113.114937 L267.289735,90.4112749 L267.289735,11.4381684 L247.955394,-0.0405562397 Z M228.697154,45.543621 L209.683292,56.8595455 L209.683292,79.3160758 L228.549776,90.7976723 L247.858929,79.4458413 L247.858929,56.7831941 L228.697154,45.543621 Z" id="d" fill="#FFFFFF" sketch:type="MSShapeGroup"></path>
                    <path d="M133.626239,23.0591498 L95.0593816,45.655628 L95.0593816,90.6401125 L133.880264,113.104754 L172.228466,90.8839552 L172.228466,45.6500608 L133.626239,23.0591498 Z M133.926383,46 L115,57.2523981 L115,79.5828599 L133.779684,91 L153,79.7118969 L153,57.1764753 L133.926383,46 Z" id="o" fill="#FFFFFF" sketch:type="MSShapeGroup"></path>
                    <path d="M0.0592080171,23.0184199 L0.0592080171,101.905827 L18.9514159,113.394151 L18.9514159,56.9813497 L38.4636817,45.6658105 L57.9807709,57.1848482 L57.9807709,113.144982 L76.923891,101.920666 L76.923891,45.6861643 L38.6110594,23.1202445 L19.7794104,34.2330557 L0.0592080171,23.0184199 Z" id="n" fill="#FFFFFF" sketch:type="MSShapeGroup"></path>
                    <g id="old"></g>
                </g>
            </g>
        </g>
    </g>
</svg>